<?xml version="1.0" standalone="no"?>
<!DOCTYPE svg PUBLIC "-//W3C//DTD SVG 20010904//EN"
 "http://www.w3.org/TR/2001/REC-SVG-20010904/DTD/svg10.dtd">
<svg version="1.0" xmlns="http://www.w3.org/2000/svg"
 width="90px" height="89px" viewBox="0 0 3000.000000 2959.000000"
 preserveAspectRatio="xMidYMid meet">
<metadata>
Created by potrace 1.16, written by Peter Selinger 2001-2019
</metadata>
<g transform="translate(0.000000,857.000000) scale(0.100000,-0.100000)"
fill="#FFF" stroke="none">
<path d="M22400 8510 c-93 -6 -114 -11 -180 -44 -152 -74 -277 -230 -375 -468
-14 -34 -32 -76 -39 -93 -7 -16 -26 -66 -41 -110 -15 -44 -34 -94 -41 -112 -8
-17 -14 -34 -14 -38 0 -12 -58 -128 -90 -180 -17 -27 -33 -58 -37 -67 -3 -10
-8 -18 -12 -18 -3 0 -12 -15 -20 -32 -8 -18 -17 -35 -21 -38 -7 -5 -474 -818
-512 -891 -13 -24 -29 -50 -35 -57 -7 -7 -13 -18 -13 -23 0 -5 -35 -72 -79
-147 -43 -75 -98 -173 -121 -217 -24 -44 -46 -84 -50 -90 -7 -9 -81 -147 -132
-245 -13 -25 -25 -47 -28 -50 -3 -3 -22 -39 -43 -80 -22 -41 -48 -91 -59 -110
-20 -35 -91 -170 -226 -430 -98 -189 -383 -758 -449 -897 -104 -218 -213 -454
-213 -460 0 -2 -10 -25 -21 -51 -29 -64 -53 -118 -78 -177 -12 -27 -26 -59
-31 -70 -5 -11 -21 -49 -36 -85 -14 -36 -35 -84 -45 -107 -10 -23 -19 -45 -19
-48 0 -4 -7 -21 -15 -38 -8 -18 -21 -50 -29 -72 -57 -159 -91 -235 -103 -235
-7 0 -13 -4 -13 -10 0 -5 -4 -10 -10 -10 -10 0 -166 -96 -186 -115 -6 -5 -22
-17 -34 -25 -12 -8 -37 -26 -55 -40 -18 -14 -45 -34 -61 -45 -15 -11 -32 -25
-38 -30 -6 -6 -31 -26 -56 -45 -25 -19 -50 -39 -56 -45 -6 -5 -31 -26 -54 -45
-49 -39 -113 -95 -145 -125 -12 -11 -41 -36 -65 -55 -25 -19 -52 -42 -61 -50
-31 -30 -86 -77 -174 -150 -49 -41 -94 -80 -100 -86 -21 -23 -236 -189 -336
-259 -57 -41 -108 -78 -114 -82 -31 -26 -228 -148 -435 -269 -108 -64 -321
-174 -335 -174 -4 0 -21 -7 -38 -14 -35 -16 -125 -42 -202 -58 -79 -16 -242
-4 -292 21 -23 12 -47 21 -52 21 -9 0 -80 67 -108 103 -12 15 -50 87 -78 149
-9 20 -17 57 -17 82 -1 38 4 50 28 71 39 34 46 40 64 48 8 4 34 20 58 35 23
15 77 49 120 76 111 70 156 100 162 107 3 3 16 12 29 19 14 7 30 17 35 21 6 5
85 64 176 130 91 67 172 128 180 135 8 7 24 21 35 31 12 10 39 31 60 47 22 16
47 37 56 45 9 9 34 30 55 48 22 17 48 40 59 50 11 10 38 33 60 52 125 106 229
205 485 461 157 157 326 330 375 384 50 55 97 106 105 115 8 9 40 45 70 81 30
35 62 71 70 80 8 9 38 42 65 75 28 32 57 66 65 75 14 15 26 28 97 116 17 21
58 71 90 110 75 91 93 115 153 199 27 39 53 75 58 80 6 9 71 116 108 180 14
23 152 300 164 330 66 152 120 323 138 435 33 200 33 213 17 351 -29 238 -105
402 -235 509 -24 19 -48 40 -54 45 -6 6 -45 27 -86 47 -153 75 -365 127 -645
160 -103 11 -396 5 -470 -11 -27 -6 -81 -17 -120 -25 -88 -18 -187 -45 -200
-56 -5 -4 -23 -10 -40 -14 -90 -22 -389 -185 -458 -250 -7 -6 -28 -23 -47 -37
-42 -32 -120 -108 -219 -214 -41 -44 -95 -102 -121 -130 -25 -27 -79 -88 -119
-135 -40 -47 -85 -98 -101 -115 -30 -33 -85 -97 -140 -165 -19 -23 -43 -52
-54 -64 -10 -11 -30 -37 -45 -56 -14 -19 -34 -44 -43 -54 -10 -11 -18 -23 -18
-28 0 -18 -31 -1 -105 60 -21 17 -132 79 -165 92 -19 7 -39 16 -45 20 -5 4
-39 17 -75 28 -330 104 -635 107 -847 7 -17 -8 -34 -15 -38 -15 -14 0 -224
-100 -325 -156 -232 -127 -598 -368 -777 -512 -27 -21 -55 -35 -75 -35 l-33
-2 5 75 c11 169 5 403 -13 475 -41 164 -129 360 -185 412 -42 40 -111 79 -166
95 -22 6 -45 15 -51 19 -5 3 -32 11 -60 17 -232 48 -520 -4 -669 -121 -68 -54
-96 -102 -96 -166 0 -49 5 -64 42 -121 38 -58 43 -72 46 -135 7 -126 -74 -491
-203 -925 -9 -30 -25 -84 -35 -120 -18 -66 -42 -144 -80 -268 -12 -37 -28 -92
-36 -122 -8 -30 -19 -64 -24 -75 -5 -11 -23 -67 -40 -125 -18 -58 -36 -114
-40 -125 -5 -11 -16 -42 -24 -70 -13 -43 -149 -447 -271 -805 -47 -136 -69
-188 -125 -283 -58 -101 -63 -108 -142 -224 -37 -54 -81 -118 -98 -143 -16
-25 -33 -49 -37 -55 -23 -30 -63 -96 -63 -104 0 -5 -4 -11 -9 -13 -13 -5 -87
-156 -111 -227 -33 -100 -45 -208 -31 -291 6 -39 15 -78 20 -88 5 -9 23 -46
41 -82 51 -103 116 -187 231 -300 115 -112 145 -140 155 -140 3 0 18 -9 33
-19 112 -80 340 -79 452 1 56 40 162 151 204 213 22 33 43 62 48 63 4 2 7 8 7
13 0 4 11 32 24 61 27 61 50 136 70 228 25 114 46 194 56 215 5 11 14 40 21
65 20 82 71 229 105 307 8 17 14 34 14 38 0 3 9 27 21 53 11 26 27 63 36 82
30 69 183 370 193 380 3 3 12 19 20 35 8 17 19 35 23 40 4 6 29 44 54 85 26
41 50 77 53 80 3 3 27 39 55 79 219 328 578 705 941 992 45 35 94 73 108 83
15 11 36 27 46 35 10 9 26 22 37 29 10 7 41 28 68 48 45 32 99 68 270 179 154
101 441 255 690 371 53 25 121 23 227 -5 98 -26 96 -20 38 -116 -83 -136 -218
-392 -279 -525 -18 -41 -44 -98 -57 -127 -13 -28 -24 -55 -24 -60 0 -4 -6 -20
-14 -34 -8 -15 -28 -65 -45 -110 -18 -46 -36 -93 -41 -104 -13 -30 -77 -222
-96 -290 -108 -392 -97 -733 40 -1195 9 -30 21 -63 26 -72 6 -10 10 -23 10
-30 1 -7 9 -31 20 -53 11 -22 19 -44 20 -48 0 -4 9 -29 21 -55 128 -288 274
-482 461 -610 46 -32 328 -176 483 -247 96 -44 293 -122 332 -131 15 -4 33 -9
38 -13 16 -10 144 -41 229 -56 190 -34 419 -27 550 16 59 20 246 107 256 119
3 3 21 14 40 23 19 10 98 56 175 103 77 47 148 88 158 91 9 3 17 9 17 14 0 5
5 9 10 9 6 0 43 21 83 47 66 42 121 77 217 138 62 38 125 80 130 85 3 3 25 19
50 35 25 17 79 55 121 85 43 30 87 62 99 70 12 8 37 26 55 40 18 14 45 34 60
44 14 11 35 27 45 35 10 9 42 34 70 56 28 22 70 57 93 77 23 20 44 35 48 33 3
-3 8 -48 11 -102 6 -103 25 -185 61 -268 24 -55 97 -174 124 -204 162 -172
249 -248 378 -328 71 -44 266 -143 281 -143 3 0 20 -7 37 -14 46 -21 137 -50
252 -81 129 -34 332 -44 445 -22 84 17 175 42 205 56 11 6 61 29 110 51 50 23
106 51 125 64 19 12 55 36 80 52 25 16 51 35 58 42 7 6 17 12 22 12 5 0 15 6
22 13 7 7 58 48 112 92 55 44 167 146 249 227 l150 148 35 -57 c103 -172 296
-350 515 -476 54 -32 100 -57 103 -57 2 0 33 -13 69 -30 36 -16 72 -30 80 -30
7 0 16 -4 19 -9 3 -4 27 -14 53 -21 27 -7 53 -16 58 -20 6 -4 42 -15 80 -25
277 -68 508 -58 715 32 86 37 262 130 295 155 6 4 60 44 120 89 61 45 115 86
120 92 6 7 39 36 73 66 98 84 245 234 430 441 22 25 42 43 44 40 3 -3 24 -34
48 -70 63 -95 199 -230 331 -328 160 -120 267 -184 479 -288 171 -85 243 -103
410 -104 93 0 135 5 214 25 54 14 105 30 114 35 10 5 44 21 77 35 49 21 155
83 200 117 175 132 348 300 560 543 115 133 150 176 224 275 39 52 74 100 79
106 5 5 15 21 22 35 7 13 16 26 19 29 6 5 18 23 86 130 37 57 120 195 129 212
3 7 20 38 37 68 69 125 194 379 249 510 17 41 38 89 46 107 8 17 14 34 14 38
0 3 8 25 19 48 10 23 40 103 66 177 26 74 51 144 55 155 5 11 14 38 20 60 6
22 15 49 20 60 12 27 68 205 91 288 11 37 28 100 40 140 24 82 52 188 79 297
45 184 57 215 94 241 4 4 85 9 180 13 242 9 433 41 696 116 165 47 220 61 423
104 72 16 134 43 165 73 11 11 39 25 197 99 32 15 74 42 92 60 32 32 33 37 33
109 0 42 -5 86 -11 98 -42 82 -211 187 -385 241 -219 67 -528 77 -1124 35
-313 -22 -412 3 -504 123 -49 64 -79 125 -165 336 -28 68 -60 137 -72 155 -39
56 -134 144 -210 194 -102 66 -112 72 -129 80 -8 3 -33 14 -55 24 -156 68
-282 93 -475 94 -142 0 -177 -3 -250 -23 -124 -34 -307 -128 -434 -223 -175
-130 -433 -399 -580 -603 -11 -15 -28 -37 -38 -49 -10 -12 -21 -26 -26 -32 -4
-5 -30 -41 -56 -80 -50 -71 -111 -147 -169 -208 -67 -70 -94 -105 -163 -207
-96 -143 -194 -299 -194 -310 0 -4 -4 -10 -8 -12 -5 -1 -24 -29 -43 -62 -19
-32 -42 -71 -51 -87 -42 -69 -58 -97 -81 -139 -13 -25 -42 -79 -64 -120 -92
-172 -243 -485 -243 -505 0 -4 -6 -21 -14 -38 -62 -141 -154 -440 -191 -622
-17 -85 -39 -237 -50 -346 l-6 -66 -57 -28 c-168 -81 -340 -232 -676 -592
-124 -132 -330 -337 -385 -381 -25 -21 -53 -45 -63 -55 -49 -47 -209 -156
-246 -168 -89 -26 -130 37 -139 211 -12 259 59 705 143 897 8 17 14 35 14 41
0 9 22 63 56 139 8 17 14 34 14 38 0 4 6 21 14 38 8 18 29 66 46 107 17 41 38
89 45 105 7 17 25 59 39 95 15 36 31 74 36 85 5 11 21 52 36 90 15 39 35 89
45 112 11 23 19 45 19 48 0 3 9 27 21 53 11 26 26 61 34 77 23 52 52 118 75
170 128 288 209 451 383 775 22 41 47 89 55 105 13 26 115 206 193 341 13 23
53 92 89 153 36 62 72 123 80 137 48 75 90 148 90 155 0 5 4 9 9 9 5 0 11 8
15 18 3 9 19 37 35 62 17 25 44 70 62 100 18 30 36 57 41 58 4 2 8 8 8 12 0
13 205 338 221 350 3 3 12 16 19 29 13 25 123 197 137 216 4 6 20 29 36 53 15
23 39 61 55 85 15 23 30 47 35 52 4 6 27 42 52 80 24 39 48 75 52 80 5 6 23
33 40 60 18 28 36 55 40 60 5 6 18 26 30 45 18 28 144 219 363 550 70 105 228
350 275 425 33 52 68 105 78 117 9 11 17 25 17 29 0 4 6 14 13 21 7 7 28 40
47 73 18 33 37 62 41 65 4 3 23 34 42 70 117 222 122 417 16 647 -10 24 -19
46 -19 51 0 15 -75 89 -113 110 -21 12 -72 34 -115 49 -72 25 -91 27 -277 30
-277 6 -474 -8 -545 -38 -30 -13 -56 -27 -58 -31 -2 -4 -8 -8 -14 -8 -18 0
-101 -74 -150 -135 -61 -75 -60 -74 -78 -110 -8 -16 -17 -32 -20 -35 -7 -6
-90 -178 -90 -186 0 -3 -7 -20 -15 -37 -8 -18 -37 -95 -65 -172 -28 -77 -56
-151 -62 -165 -13 -27 -179 -319 -216 -378 -12 -20 -25 -44 -29 -52 -3 -8 -11
-22 -18 -30 -12 -14 -52 -86 -99 -175 -12 -22 -24 -42 -27 -45 -3 -3 -42 -70
-88 -150 -45 -80 -86 -152 -91 -160 -5 -8 -17 -31 -27 -50 -9 -19 -19 -37 -22
-40 -4 -3 -14 -21 -23 -40 -10 -19 -22 -42 -28 -50 -14 -22 -195 -343 -203
-360 -4 -8 -20 -37 -35 -65 -15 -27 -52 -95 -81 -150 -30 -55 -57 -104 -61
-110 -7 -9 -26 -45 -123 -225 -94 -176 -144 -270 -188 -355 -26 -49 -65 -124
-87 -165 -63 -121 -416 -826 -467 -935 -57 -120 -119 -255 -139 -298 -37 -84
-71 -157 -96 -212 -16 -33 -43 -94 -60 -135 -17 -41 -35 -84 -40 -95 -5 -11
-23 -54 -40 -95 -17 -41 -35 -84 -40 -95 -5 -11 -21 -51 -36 -90 -14 -38 -32
-83 -39 -100 -7 -16 -19 -47 -25 -68 -7 -22 -18 -51 -26 -65 -8 -15 -14 -31
-14 -35 0 -4 -9 -29 -21 -55 -11 -26 -24 -56 -29 -67 -5 -11 -14 -38 -21 -60
-6 -22 -15 -44 -19 -50 -4 -5 -13 -28 -19 -50 -7 -22 -16 -49 -21 -60 -5 -11
-26 -69 -46 -130 -36 -110 -48 -129 -94 -140 -49 -13 -175 -81 -208 -112 -7
-7 -17 -13 -21 -13 -4 0 -17 -8 -28 -17 -12 -10 -43 -36 -69 -58 -56 -46 -259
-248 -556 -556 -115 -118 -244 -243 -289 -279 -83 -67 -105 -84 -136 -110
-134 -111 -212 -115 -253 -14 -20 48 -22 71 -22 221 1 192 22 375 66 568 25
108 96 321 142 422 8 17 14 34 14 38 0 3 9 27 21 53 33 74 45 102 79 182 17
41 38 89 46 107 8 17 14 35 14 40 1 4 9 26 20 48 11 22 19 44 20 48 0 5 6 23
14 40 8 18 32 77 54 132 22 55 49 121 61 147 11 26 21 49 21 52 0 3 20 47 43
98 24 51 52 113 63 138 48 114 368 740 453 885 26 44 55 96 64 115 10 19 29
53 43 75 13 22 29 49 34 60 5 11 20 36 32 57 13 20 50 83 82 140 33 56 63 105
68 106 4 2 8 7 8 12 0 4 30 56 66 116 37 60 76 125 88 144 11 19 24 40 28 45
20 24 58 87 58 93 0 5 7 17 15 27 8 11 36 54 62 95 26 41 51 77 55 78 4 2 8 8
8 14 0 6 11 26 25 44 14 18 25 36 25 39 0 3 11 21 25 39 14 18 25 36 25 40 0
4 5 12 10 19 6 7 58 84 115 172 57 88 109 167 115 175 5 8 75 114 154 235 80
121 148 225 153 230 5 6 24 35 43 65 19 30 37 57 40 60 3 3 21 30 40 60 19 30
38 60 43 65 4 6 55 82 112 170 57 88 107 165 112 170 5 6 40 60 78 120 38 61
80 126 92 145 13 19 28 42 33 50 5 8 20 31 33 50 85 131 147 232 147 240 0 6
4 10 8 10 10 0 72 132 72 153 0 9 4 18 9 21 16 10 34 177 27 252 -6 74 -30
157 -72 252 -13 29 -24 56 -24 60 0 4 -19 26 -42 48 -59 55 -160 102 -266 123
-57 12 -412 12 -582 1z m-4307 -3353 c4 -6 6 -41 4 -77 -4 -70 -26 -125 -88
-228 -22 -35 -39 -68 -39 -72 0 -5 -4 -10 -8 -12 -14 -6 -152 -262 -152 -282
0 -6 -70 -126 -82 -141 -4 -5 -47 -62 -94 -125 -114 -151 -213 -274 -279 -345
-11 -11 -33 -37 -49 -56 -197 -236 -491 -535 -915 -929 -53 -49 -136 -111
-157 -116 -79 -20 -71 53 31 271 74 158 99 210 104 215 3 3 17 28 31 55 43 87
154 280 162 283 4 2 8 8 8 13 0 4 24 46 52 91 50 79 59 92 83 121 6 7 19 26
29 42 33 50 187 256 244 325 105 126 137 164 156 183 11 11 47 52 80 91 33 39
164 175 291 301 302 302 466 424 550 410 16 -3 33 -11 38 -18z m8758 -350 c9
-7 19 -23 24 -36 4 -12 31 -47 60 -77 68 -68 71 -82 68 -369 -2 -213 -16 -368
-46 -520 -38 -187 -50 -241 -58 -250 -5 -5 -9 -16 -9 -24 0 -15 -54 -199 -70
-236 -4 -11 -22 -58 -39 -105 -18 -47 -36 -94 -41 -105 -5 -11 -23 -54 -41
-95 -48 -113 -252 -516 -268 -530 -3 -3 -19 -30 -35 -60 -15 -30 -44 -80 -63
-110 -19 -30 -63 -101 -99 -158 -35 -56 -64 -107 -64 -112 0 -4 -3 -10 -7 -12
-8 -3 -27 -30 -98 -143 -21 -33 -64 -98 -95 -145 -31 -47 -69 -103 -83 -125
-15 -22 -30 -44 -35 -50 -4 -5 -23 -35 -42 -65 -19 -30 -37 -57 -40 -60 -3 -3
-20 -27 -39 -55 -45 -66 -128 -146 -173 -168 -70 -33 -105 -20 -176 68 -37 44
-93 178 -111 265 -35 168 -35 289 -1 505 18 114 82 364 110 430 5 11 14 38 20
60 7 22 18 54 25 70 7 17 17 42 20 58 4 15 11 30 16 33 5 3 9 12 9 19 0 8 11
39 25 69 14 30 25 58 25 61 0 26 320 647 390 755 5 8 28 47 50 85 23 39 50 84
60 100 11 17 27 43 35 59 17 29 129 203 142 221 4 6 30 44 58 85 27 41 53 80
57 85 18 24 95 134 123 175 16 25 32 47 35 50 3 3 21 28 39 55 19 28 37 52 40
55 4 3 17 21 30 40 61 89 171 197 212 209 44 12 42 12 60 -2z"/>
<path d="M12865 7405 c-5 -2 -109 -11 -230 -20 -121 -8 -247 -20 -280 -25 -33
-6 -114 -17 -180 -25 -66 -9 -174 -24 -240 -35 -112 -18 -187 -32 -455 -81
-217 -40 -582 -89 -850 -113 -91 -8 -210 -20 -265 -25 -169 -18 -520 -24 -680
-12 -174 13 -244 23 -364 52 -113 27 -254 23 -317 -10 -66 -34 -138 -111 -153
-162 -7 -24 -17 -55 -22 -69 -27 -81 -39 -437 -18 -514 34 -121 183 -228 399
-285 139 -36 255 -44 635 -40 l360 4 -1 -50 c0 -35 -11 -72 -34 -120 -18 -38
-52 -110 -75 -160 -24 -49 -55 -118 -69 -153 -15 -35 -42 -95 -60 -135 -19
-40 -43 -94 -55 -122 -12 -27 -26 -59 -31 -70 -5 -11 -23 -54 -40 -95 -17 -41
-38 -89 -46 -107 -8 -17 -14 -35 -14 -40 -1 -4 -9 -26 -20 -48 -11 -22 -19
-44 -20 -48 0 -4 -8 -27 -19 -50 -10 -23 -31 -73 -45 -112 -15 -38 -34 -84
-42 -102 -8 -17 -14 -34 -14 -38 0 -4 -7 -21 -15 -38 -18 -41 -73 -186 -137
-362 -27 -77 -54 -149 -59 -160 -15 -34 -116 -327 -210 -615 -50 -151 -95
-284 -99 -295 -5 -11 -23 -69 -40 -130 -17 -60 -35 -117 -39 -125 -4 -8 -14
-40 -21 -70 -7 -30 -16 -59 -20 -65 -4 -5 -10 -23 -14 -40 -8 -34 -33 -124
-76 -265 -16 -52 -36 -122 -45 -155 -9 -33 -25 -89 -35 -125 -65 -227 -225
-834 -276 -1045 -22 -89 -43 -268 -44 -366 0 -113 15 -190 52 -267 48 -97 117
-154 289 -239 157 -77 213 -103 224 -103 4 0 21 -7 38 -15 18 -8 79 -26 137
-41 90 -23 119 -26 210 -22 120 5 176 27 244 95 81 81 106 172 106 391 0 294
36 558 140 1027 68 308 110 481 160 670 12 44 30 112 40 150 10 39 28 102 39
140 11 39 27 97 36 130 9 33 27 92 40 130 13 39 37 117 55 175 17 58 35 114
40 125 5 11 15 40 21 65 7 25 16 50 19 55 4 6 13 33 20 60 8 28 20 61 27 75 7
14 13 32 13 40 0 8 6 27 14 41 7 14 16 39 20 55 4 16 14 43 21 59 7 17 28 68
46 115 67 178 164 421 193 485 47 103 56 125 56 130 0 3 18 44 40 91 22 47 40
88 40 91 0 16 373 768 461 928 33 61 67 124 75 140 8 17 18 37 23 45 25 40
198 349 211 375 8 16 17 32 20 35 7 6 41 68 81 148 30 61 31 65 18 105 -7 23
-13 46 -14 52 0 19 351 84 645 120 69 8 159 19 200 25 127 16 461 32 591 28
124 -4 216 -26 305 -73 16 -8 33 -15 38 -15 5 0 37 -27 72 -59 80 -75 172
-121 243 -121 56 0 175 28 261 63 83 33 159 83 225 151 82 84 114 152 127 270
10 85 10 99 -7 136 -57 126 -373 360 -635 470 -41 18 -88 38 -105 45 -50 22
-156 53 -255 74 -81 18 -127 21 -335 20 -132 0 -244 -2 -250 -4z"/>
<path d="M802 7259 c-119 -20 -282 -90 -377 -162 -79 -60 -193 -187 -239 -266
-25 -44 -46 -83 -46 -87 0 -3 -6 -20 -14 -37 -8 -18 -25 -70 -38 -117 l-23
-85 0 -2820 0 -2820 23 -82 c55 -199 169 -375 312 -482 19 -14 37 -28 40 -31
26 -27 138 -84 229 -115 163 -57 45 -55 2976 -55 2898 0 2806 -1 2964 50 69
22 174 70 179 83 2 4 9 7 14 7 26 0 168 122 228 196 48 59 124 193 149 264 48
130 45 -40 49 2925 2 1909 0 2799 -8 2863 -5 51 -20 121 -31 155 -20 59 -94
217 -108 227 -3 3 -19 24 -34 46 -23 34 -96 111 -150 159 -88 78 -278 162
-417 184 -81 13 -5599 13 -5678 0z m2034 -925 c140 -32 242 -113 306 -243 l33
-66 0 -2145 0 -2145 -32 -68 c-59 -124 -176 -219 -303 -247 -61 -13 -1450 -13
-1510 1 -158 35 -296 173 -329 330 -9 40 -11 579 -9 2159 l3 2105 24 55 c61
139 162 224 311 264 85 22 1409 23 1506 0z m3117 1 c171 -40 299 -164 336
-325 7 -30 11 -454 11 -1233 0 -1042 -2 -1196 -16 -1257 -8 -38 -22 -74 -30
-81 -8 -6 -14 -17 -14 -25 0 -24 -148 -164 -175 -164 -5 0 -23 -7 -39 -15 -15
-8 -56 -19 -90 -25 -76 -12 -1376 -13 -1461 -1 -55 8 -139 40 -174 66 -38 28
-109 104 -129 138 -12 21 -31 65 -42 99 -20 60 -20 86 -20 1263 l0 1201 21 65
c26 76 77 157 121 190 17 13 37 29 43 36 20 19 101 54 157 68 40 10 219 13
745 14 582 1 702 -1 756 -14z"/>
</g>
</svg>
